<svg width="936" height="240" viewBox="0 0 936 240" fill="none" xmlns="http://www.w3.org/2000/svg">
<g filter="url(#filter0_d_2_4)">
<path d="M844.39 63.1028C845.566 63.1029 846.688 63.4155 847.481 63.6751C848.374 63.9678 849.36 64.3703 850.405 64.8431C852.501 65.791 855.141 67.1641 858.283 68.9202H858.282C864.161 72.0831 866.025 78.6278 866.026 85.5569C866.026 92.2298 864.288 100.151 861.046 109.209C861.282 109.127 861.517 109.043 861.752 108.956C863.558 108.291 865.165 107.759 866.544 107.388C867.836 107.04 869.26 106.74 870.571 106.74H870.849L871.123 106.77C872.765 106.952 874.597 107.648 876.284 108.398C878.09 109.2 880.252 110.308 882.738 111.688C885.352 112.999 887.575 114.274 889.308 115.52C890.842 116.622 892.626 118.14 893.587 120.14H893.589C893.613 120.187 893.634 120.236 893.656 120.284C893.666 120.304 893.676 120.324 893.686 120.345H893.685C894.343 121.795 894.39 123.375 894.39 124.284C894.39 127.596 893.095 131.284 891.234 135.043C881.486 159.528 875.815 178.597 873.984 192.42C874.471 191.786 875.125 190.89 875.966 189.677C877.547 187.214 878.739 185.253 879.565 183.766L879.662 183.588L879.775 183.42C880.781 181.91 882.169 179.66 883.955 176.624C885.729 173.43 887.413 170.238 889.008 167.048L889.031 167.002L889.056 166.956C890.849 163.549 892.918 159.5 895.265 154.807C897.637 149.881 900.279 144.507 903.191 138.685L903.329 138.407L903.502 138.148C905.126 135.712 907.697 135.103 909.571 135.103C912.681 135.103 915.842 136.197 918.899 137.813L919.485 138.112C920.84 138.816 922.088 139.568 923.088 140.381C923.661 140.847 924.314 141.461 924.858 142.242C925.396 143.016 926.026 144.247 926.026 145.83V146.803L925.833 147.477C925.509 148.611 924.754 150.262 923.884 152.045C922.94 153.98 921.638 156.513 919.99 159.624C916.655 165.924 911.693 174.559 905.132 185.493L905.122 185.509L905.112 185.526C898.476 196.402 891.967 205.622 885.577 213.141C881.805 217.621 876.903 220.103 871.117 220.103C869.675 220.103 868.255 219.916 866.864 219.557H866.753C865.516 219.557 864.317 219.143 863.708 218.925C862.924 218.645 862.015 218.263 861.014 217.811C858.298 216.78 855.404 214.864 852.418 212.438L852.357 212.388L852.297 212.336C849.028 209.503 846.541 206.148 844.948 202.28L844.857 202.056L844.786 201.826C842.802 195.276 841.844 188.049 841.844 180.194C841.844 165.483 845.363 148.571 852.177 129.544C851.961 129.504 851.743 129.465 851.522 129.422C846.796 138.948 842.07 148.116 837.34 156.923L835.925 159.557H832.935C831.815 159.557 830.793 159.175 830.53 159.082C830.012 158.899 829.425 158.656 828.808 158.384C827.56 157.835 825.906 157.042 823.881 156.03L823.801 155.99L823.723 155.947C821.696 154.841 820.078 153.914 818.933 153.185C818.379 152.832 817.806 152.445 817.325 152.052C817.098 151.866 816.74 151.557 816.394 151.148C816.219 150.941 815.953 150.599 815.711 150.138C815.487 149.711 815.117 148.866 815.117 147.74V146.354L815.829 145.166L815.83 145.165C815.831 145.164 815.831 145.163 815.832 145.161C815.834 145.158 815.838 145.153 815.842 145.146C815.85 145.132 815.864 145.11 815.881 145.081C815.915 145.025 815.966 144.939 816.034 144.826C816.171 144.598 816.375 144.257 816.648 143.803C817.143 142.977 817.825 141.784 818.704 140.202C819.627 138.361 820.635 136.439 821.728 134.436L821.762 134.372L821.798 134.311C822.976 132.291 824.272 129.793 825.684 126.792C826.411 125.247 827.138 123.701 827.865 122.156C827.938 122 828.011 121.845 828.084 121.69C826.475 120.774 825.113 120.011 823.995 119.402L823.751 119.268L823.523 119.108C821.626 117.78 819.473 116.189 817.068 114.339L816.976 114.268L816.887 114.193C814.211 111.928 812.018 109.468 810.546 106.77L810.458 106.61L810.383 106.445C809.157 103.747 808.571 100.853 808.571 97.8304C808.571 92.4779 810.746 87.0547 814.32 81.6927L814.35 81.6497C817.481 77.058 821.678 73.0042 826.817 69.4466L826.853 69.4212L826.889 69.3968C832.148 65.8907 837.313 63.5983 842.279 63.1253L842.516 63.1028H844.39ZM844.999 83.4173C842.113 86.0714 838.92 89.8617 835.438 94.9075C833.343 98.06 832.481 100.919 832.481 103.557C832.481 105.735 833.037 107.399 834.026 108.766C834.999 106.467 836.286 103.438 837.88 99.6907C840.834 92.7487 843.211 87.3143 844.999 83.4173Z" fill="#C9B3E0" fill-opacity="0.5" stroke="white" stroke-width="10"/>
<path d="M766.743 115.786C761.242 120.42 755.18 127.382 748.593 136.941C740.195 149.376 734.755 160.363 732.043 169.94C733.683 168.2 735.686 166.044 738.062 163.451C746.092 154.692 751.06 149.095 753.116 146.525L753.129 146.51L753.141 146.495C755.078 144.111 758.316 139.758 762.9 133.361C762.243 132.161 761.839 130.774 761.839 129.194C761.839 127.713 762.352 126.267 762.742 125.291C763.201 124.145 763.839 122.83 764.609 121.386L764.669 121.275L764.733 121.167C766.068 118.943 766.611 117.292 766.746 116.144C766.745 116.023 766.745 115.904 766.743 115.786ZM841.112 148.012C841.112 148.945 840.849 149.716 840.792 149.89C840.681 150.228 840.548 150.562 840.424 150.854C840.171 151.448 839.829 152.167 839.425 152.975C838.609 154.606 837.414 156.853 835.859 159.689L835.843 159.719L835.825 159.749C832.673 165.311 828.076 172.848 822.061 182.327C816.001 191.876 809.836 200.711 803.565 208.829L803.566 208.83C801.491 211.598 798.856 213.779 795.74 215.374C793.12 216.964 790.231 218.194 787.294 218.194C786.066 218.194 784.942 217.88 783.967 217.393L783.81 217.315L783.659 217.226C779.732 214.905 776.522 213.175 773.997 211.997C771.548 210.854 769.846 210.049 768.951 209.61C767.812 209.162 766.863 208.489 766.086 207.771C765.125 207.045 763.954 205.926 762.758 204.73L762.582 204.553L762.424 204.36C760.639 202.178 759.161 199.961 758.339 197.768L758.307 197.681L758.277 197.593C757.715 195.906 756.957 192.429 756.007 187.458C755.978 187.488 755.949 187.518 755.92 187.547C754.729 188.738 753.433 190.119 752.03 191.697L751.934 191.807L751.829 191.911C750.476 193.265 749.358 194.382 748.477 195.263C748.199 195.61 747.985 195.878 747.834 196.068C747.743 196.181 747.675 196.266 747.63 196.322C747.607 196.351 747.59 196.373 747.579 196.387C747.574 196.394 747.569 196.399 747.566 196.403C747.565 196.404 747.563 196.406 747.562 196.406V196.407L747.284 196.755L746.95 197.047C746.37 197.555 745.986 197.928 745.751 198.178L745.556 198.766L744.662 199.622C739.375 204.689 732.957 207.284 725.657 207.284H723.257L722.115 206.643C714.832 202.546 709.202 199.319 705.243 196.972C703.268 195.8 701.675 194.828 700.487 194.065C699.496 193.428 698.304 192.639 697.576 191.911L697.492 191.827L697.412 191.738C695.399 189.524 693.749 187.257 692.725 184.951L692.596 184.661L692.505 184.358C691.838 182.134 690.971 177.293 689.897 170.318L689.898 170.317C689.667 168.902 689.566 167.365 689.566 165.739C689.566 159.419 691.339 152.039 694.539 143.755C697.771 135.391 702.036 127.249 707.315 119.329L707.322 119.319L707.33 119.307C712.957 110.963 719.954 103.964 728.295 98.3352C736.99 92.4064 746.137 89.2844 755.657 89.2844C757.642 89.2844 759.627 89.384 761.609 89.5822L761.954 89.6164L762.29 89.6985C767.661 91.0005 772.991 93.5265 778.277 97.133C778.952 96.1034 779.675 95.0278 780.446 93.9065L780.505 93.8215L780.566 93.7395C781.687 92.2457 782.665 91.0095 783.477 90.0901C783.877 89.6359 784.306 89.1804 784.74 88.7873C784.911 88.6328 785.315 88.2651 785.895 87.9133C786.168 87.714 786.409 87.5667 786.562 87.4748C786.822 87.3193 787.101 87.1682 787.388 87.0188C788.074 86.572 788.744 86.3483 789.218 86.2297C789.931 86.0514 790.598 86.0119 791.112 86.0119L791.494 86.0197C793.409 86.0987 795.363 86.7544 797.119 87.5139C799.091 88.3665 801.323 89.5815 803.782 91.093C806.267 92.5662 808.273 93.8446 809.702 94.9035C810.403 95.4226 811.117 95.9997 811.705 96.6096C811.997 96.9121 812.378 97.3446 812.713 97.8908C812.957 98.2887 813.388 99.0854 813.523 100.165C813.605 100.658 813.672 101.08 813.721 101.418C813.752 101.634 813.839 102.221 813.839 102.739V103.012C813.839 105.178 813.269 107.952 812.436 111.009C811.569 114.186 810.294 118.095 808.635 122.705L808.63 122.718C801.679 141.87 796.422 160.366 792.843 178.209C793.155 177.897 793.49 177.562 793.849 177.203C795.866 175.186 797.368 173.433 798.421 171.941C799.746 169.865 801.499 167.285 803.663 164.219L803.719 164.142L803.776 164.066C805.999 161.159 808.253 157.784 810.534 153.923L810.551 153.895L810.568 153.866C813.07 149.757 815.761 145.093 818.644 139.869L818.85 139.495L819.116 139.161C820.719 137.158 823.025 135.921 825.748 135.921L826.075 135.927C829.373 136.045 832.371 137.926 834.828 139.98C836.12 140.909 837.256 141.805 838.168 142.659C838.988 143.428 840.141 144.623 840.754 146.155L841.112 147.049V148.012Z" fill="#C9B3E0" fill-opacity="0.5" stroke="white" stroke-width="10"/>
<path d="M624.179 138.466C624.179 139.398 623.911 140.101 623.861 140.237C623.765 140.501 623.663 140.711 623.604 140.831C623.48 141.078 623.35 141.298 623.258 141.449C623.063 141.768 622.815 142.139 622.549 142.526C622.005 143.317 621.219 144.412 620.211 145.787C618.509 148.108 616.585 151.566 614.475 156.315L614.461 156.347L614.445 156.38C612.588 160.404 611.544 164.866 611.364 169.821C611.546 174.322 611.719 176.895 611.855 177.85C611.928 178.361 612.294 179.604 613.312 181.821C614.721 184.544 615.857 186.644 616.734 188.184C617.331 187.917 618.016 187.592 618.792 187.205C620.388 186.364 621.58 185.644 622.425 185.046C623.224 184.479 623.515 184.161 623.56 184.111C628.138 177.555 632.859 166.154 637.545 149.393L637.55 149.376L637.555 149.359C642.431 132.383 647.408 112.661 652.483 90.1833L652.487 90.1647L652.492 90.1462C656.552 72.7858 660.146 58.634 663.27 47.7272C654.752 50.548 648.803 53.8792 645.032 57.5016C641.047 61.4909 639 64.0241 638.296 65.3151C637.554 66.6755 636.439 69.8261 635.02 75.2809C634.692 78.298 634.542 80.6132 634.542 82.2848C634.542 86.0407 635.207 89.2165 636.42 91.9118C636.708 92.2052 637.065 92.6005 637.385 93.0798C637.642 93.4656 638.36 94.6009 638.36 96.194C638.36 97.0553 638.142 98.6195 636.828 99.9333C635.514 101.247 633.949 101.466 633.088 101.466C631.61 101.466 629.912 101.011 628.46 100.557C626.831 100.048 624.834 99.3136 622.504 98.3815L622.39 98.3356L622.277 98.2848C620.054 97.2656 618.238 96.3655 616.932 95.6032C616.3 95.235 615.613 94.7986 615.023 94.3073C614.797 94.119 614.488 93.841 614.175 93.4772C613.191 92.6734 612.471 91.7087 611.951 90.8864C611.156 89.6266 610.471 88.122 609.86 86.4948L609.827 86.403C608.519 82.6976 607.906 78.6689 607.906 74.3757C607.906 61.69 613.282 50.593 623.427 41.2438C629.288 35.7645 634.952 31.7172 640.412 29.4069C645.228 27.3693 649.752 26.0901 653.623 26.2819C655.216 26.2563 658.264 25.4789 663.164 23.2038L663.225 23.1764C667.834 21.11 673.207 17.3934 679.351 11.776L682.078 9.28191L685.263 11.1589C695.346 17.1009 701.928 21.1816 704.591 23.2301C707.702 25.6234 710.088 28.9382 710.088 33.194C710.088 34.0936 709.955 35.3861 709.776 36.8141L709.739 37.1139L709.666 37.4069C709.597 37.6832 709.559 37.8657 709.542 37.9704C709.54 37.9811 709.538 37.9902 709.537 37.9977C709.515 38.9539 709.308 39.9259 709.12 40.6794L709.073 40.8659L709.013 41.0475C708.905 41.3709 708.691 42.1344 708.354 43.4704C708.126 44.9354 707.734 46.5583 707.218 48.3053C706.825 50.2359 706.181 52.9824 705.302 56.4977L705.295 56.527L705.287 56.5573C704.392 59.9603 703.404 63.8141 702.327 68.1208C701.409 72.5225 700.134 78.2589 698.505 85.318L698.502 85.3317L698.499 85.3464C696.867 92.2377 695.054 99.6651 693.063 107.629C692.794 109.096 692.032 112.298 690.865 116.967C689.767 122.086 688.404 127.906 686.775 134.423C685.304 141.038 683.737 147.215 682.071 152.952L682.029 153.096L681.979 153.239C680.157 158.339 678.692 162.368 677.588 165.313C676.467 168.301 674.806 172.453 672.617 177.742C670.543 183.01 668.311 187.509 665.885 191.149L665.884 191.148C663.766 194.414 661.209 197.818 658.231 201.358C655.152 205.242 651.623 208.289 647.597 210.302C643.634 212.284 639.415 213.285 634.997 213.285C630.297 213.285 625.568 212.053 620.861 209.805C614.324 206.718 609.292 204.078 605.913 201.902C602.498 199.883 598.991 197.232 595.391 194.01L595.34 193.965L595.291 193.92C591.448 190.29 588.69 186.031 587.142 181.165L587.109 181.065L587.082 180.964C585.838 176.401 585.27 171.019 585.27 164.921V161.304L585.271 161.233C585.481 153.912 587.775 146.423 591.867 138.823L591.889 138.784C593.942 135.051 595.843 132.008 597.588 129.787C598.459 128.678 599.387 127.649 600.374 126.824C601.303 126.047 602.656 125.132 604.375 124.82L604.818 124.739H606.906C610.889 124.739 614.577 125.993 617.872 128.314C621.155 130.447 623.808 133.545 624.161 137.779L624.179 137.986V138.466Z" fill="#C9B3E0" fill-opacity="0.5" stroke="white" stroke-width="10"/>
<mask id="path-4-outside-1_2_4" maskUnits="userSpaceOnUse" x="414.521" y="82.921" width="208" height="140" fill="black">
<rect fill="white" x="414.521" y="82.921" width="208" height="140"/>
<path d="M581.884 110.376C582.066 110.739 582.157 111.103 582.157 111.466C582.157 111.466 582.157 111.557 582.157 111.739C582.157 113.194 580.975 117.557 578.611 124.83C576.43 131.921 573.975 141.285 571.248 152.921C568.521 164.376 566.793 175.739 566.066 187.012C565.884 188.466 565.702 190.557 565.521 193.285C565.339 196.012 565.248 197.739 565.248 198.466C565.248 198.466 565.248 198.648 565.248 199.012C565.248 199.376 565.248 199.648 565.248 199.83C565.248 199.83 565.248 199.921 565.248 200.103C565.612 199.921 566.339 199.376 567.43 198.466C568.702 197.557 570.611 195.83 573.157 193.285C575.702 190.557 578.248 187.466 580.793 184.012C583.339 180.557 586.157 176.012 589.248 170.376C592.339 164.739 595.157 158.648 597.702 152.103C601.157 140.83 603.43 135.012 604.521 134.648C605.248 134.466 605.884 134.376 606.43 134.376C608.975 134.376 610.975 136.012 612.43 139.285C612.43 140.012 611.884 142.376 610.793 146.376C609.702 150.194 607.793 155.285 605.066 161.648C602.521 167.83 599.43 174.103 595.793 180.466C592.339 186.83 587.702 192.921 581.884 198.739C576.066 204.557 569.884 208.83 563.339 211.557C562.43 211.376 560.612 210.83 557.884 209.921C555.339 209.012 552.157 207.376 548.339 205.012C544.521 202.648 542.248 200.012 541.521 197.103C540.975 195.103 540.702 190.557 540.702 183.466C540.702 162.557 544.43 140.921 551.884 118.557C547.339 122.012 543.793 125.103 541.248 127.83C538.702 130.376 532.157 137.921 521.611 150.466C520.339 152.103 519.248 154.376 518.339 157.285C517.612 160.194 515.521 169.466 512.066 185.103C512.066 185.83 511.884 186.921 511.521 188.376C511.339 189.83 511.066 191.376 510.702 193.012C510.521 194.466 510.248 196.012 509.884 197.648C509.521 199.285 509.157 200.83 508.793 202.285C508.611 203.739 508.339 205.103 507.975 206.376C507.793 207.648 507.612 208.648 507.43 209.376C507.248 210.103 507.157 210.466 507.157 210.466C507.157 210.83 506.793 211.012 506.066 211.012C503.521 211.012 499.066 209.376 492.702 206.103C486.521 202.83 483.43 200.466 483.43 199.012C483.43 198.83 483.43 198.739 483.43 198.739C483.43 198.739 483.43 198.557 483.43 198.194C483.612 197.83 483.702 197.376 483.702 196.83C483.702 196.285 483.702 195.648 483.702 194.921C483.884 194.012 483.975 193.103 483.975 192.194C484.157 191.285 484.339 190.376 484.521 189.466C484.702 188.376 484.884 187.285 485.066 186.194C485.248 185.103 485.521 184.012 485.884 182.921C487.339 172.921 489.793 160.921 493.248 146.921C493.248 146.557 493.43 145.739 493.793 144.466C499.43 125.921 502.884 115.012 504.157 111.739C499.43 115.739 495.793 119.285 493.248 122.376C490.702 125.466 484.066 134.012 473.339 148.012C469.339 153.285 464.793 161.648 459.702 173.103C459.702 173.103 459.612 173.103 459.43 173.103C459.43 173.103 459.339 173.103 459.157 173.103C459.157 173.103 458.975 173.83 458.612 175.285C458.43 176.739 458.066 178.648 457.521 181.012C456.975 183.194 456.43 185.466 455.884 187.83C455.339 190.194 454.793 192.466 454.248 194.648C453.702 196.83 453.339 198.466 453.157 199.557C452.793 201.012 452.157 203.739 451.248 207.739C451.066 208.648 450.884 209.194 450.702 209.376C450.702 209.376 450.521 209.376 450.157 209.376C449.43 209.376 448.248 209.012 446.612 208.285C445.157 207.739 443.521 206.921 441.702 205.83C439.884 204.739 437.884 203.557 435.702 202.285C433.702 201.012 431.884 199.83 430.248 198.739C428.793 197.83 427.521 197.012 426.43 196.285C425.339 195.376 424.702 194.921 424.521 194.921C424.521 194.739 424.612 194.285 424.793 193.557C424.975 192.648 425.248 191.466 425.612 190.012C425.975 188.557 426.248 187.103 426.43 185.648C426.793 183.648 427.157 181.557 427.521 179.376C428.066 177.194 428.521 175.285 428.884 173.648C429.248 172.012 429.521 170.557 429.702 169.285C429.884 167.83 430.066 166.739 430.248 166.012C430.43 165.285 430.521 164.921 430.521 164.921C435.975 140.012 442.339 120.376 449.612 106.012C452.157 100.921 453.793 97.921 454.521 97.0119C455.248 95.921 456.248 95.3756 457.521 95.3756C458.612 95.3756 462.157 97.1028 468.157 100.557C474.157 103.83 477.521 106.012 478.248 107.103C478.43 107.648 478.521 108.285 478.521 109.012C478.521 111.194 476.612 118.285 472.793 130.285C481.884 118.103 492.43 107.376 504.43 98.1028C504.612 97.921 505.521 97.1937 507.157 95.921C508.793 94.4665 510.066 93.4665 510.975 92.921C511.339 92.921 511.702 92.921 512.066 92.921C514.066 92.921 516.793 93.921 520.248 95.921C523.702 97.7392 526.702 99.5574 529.248 101.376C531.793 103.194 533.066 104.194 533.066 104.376C533.066 104.376 533.066 104.466 533.066 104.648C533.066 105.376 532.702 107.103 531.975 109.83C531.43 112.376 530.702 115.012 529.793 117.739C529.066 120.285 528.339 122.648 527.611 124.83C527.066 127.012 526.793 128.103 526.793 128.103C527.702 127.012 529.339 125.285 531.702 122.921C534.248 120.557 538.248 117.012 543.702 112.285C549.339 107.557 554.43 103.83 558.975 101.103C560.066 100.557 561.339 100.285 562.793 100.285C565.157 100.285 567.975 101.194 571.248 103.012C574.521 104.648 577.066 106.285 578.884 107.921C580.884 109.376 581.884 110.194 581.884 110.376Z"/>
</mask>
<path d="M581.884 110.376C582.066 110.739 582.157 111.103 582.157 111.466C582.157 111.466 582.157 111.557 582.157 111.739C582.157 113.194 580.975 117.557 578.611 124.83C576.43 131.921 573.975 141.285 571.248 152.921C568.521 164.376 566.793 175.739 566.066 187.012C565.884 188.466 565.702 190.557 565.521 193.285C565.339 196.012 565.248 197.739 565.248 198.466C565.248 198.466 565.248 198.648 565.248 199.012C565.248 199.376 565.248 199.648 565.248 199.83C565.248 199.83 565.248 199.921 565.248 200.103C565.612 199.921 566.339 199.376 567.43 198.466C568.702 197.557 570.611 195.83 573.157 193.285C575.702 190.557 578.248 187.466 580.793 184.012C583.339 180.557 586.157 176.012 589.248 170.376C592.339 164.739 595.157 158.648 597.702 152.103C601.157 140.83 603.43 135.012 604.521 134.648C605.248 134.466 605.884 134.376 606.43 134.376C608.975 134.376 610.975 136.012 612.43 139.285C612.43 140.012 611.884 142.376 610.793 146.376C609.702 150.194 607.793 155.285 605.066 161.648C602.521 167.83 599.43 174.103 595.793 180.466C592.339 186.83 587.702 192.921 581.884 198.739C576.066 204.557 569.884 208.83 563.339 211.557C562.43 211.376 560.612 210.83 557.884 209.921C555.339 209.012 552.157 207.376 548.339 205.012C544.521 202.648 542.248 200.012 541.521 197.103C540.975 195.103 540.702 190.557 540.702 183.466C540.702 162.557 544.43 140.921 551.884 118.557C547.339 122.012 543.793 125.103 541.248 127.83C538.702 130.376 532.157 137.921 521.611 150.466C520.339 152.103 519.248 154.376 518.339 157.285C517.612 160.194 515.521 169.466 512.066 185.103C512.066 185.83 511.884 186.921 511.521 188.376C511.339 189.83 511.066 191.376 510.702 193.012C510.521 194.466 510.248 196.012 509.884 197.648C509.521 199.285 509.157 200.83 508.793 202.285C508.611 203.739 508.339 205.103 507.975 206.376C507.793 207.648 507.612 208.648 507.43 209.376C507.248 210.103 507.157 210.466 507.157 210.466C507.157 210.83 506.793 211.012 506.066 211.012C503.521 211.012 499.066 209.376 492.702 206.103C486.521 202.83 483.43 200.466 483.43 199.012C483.43 198.83 483.43 198.739 483.43 198.739C483.43 198.739 483.43 198.557 483.43 198.194C483.612 197.83 483.702 197.376 483.702 196.83C483.702 196.285 483.702 195.648 483.702 194.921C483.884 194.012 483.975 193.103 483.975 192.194C484.157 191.285 484.339 190.376 484.521 189.466C484.702 188.376 484.884 187.285 485.066 186.194C485.248 185.103 485.521 184.012 485.884 182.921C487.339 172.921 489.793 160.921 493.248 146.921C493.248 146.557 493.43 145.739 493.793 144.466C499.43 125.921 502.884 115.012 504.157 111.739C499.43 115.739 495.793 119.285 493.248 122.376C490.702 125.466 484.066 134.012 473.339 148.012C469.339 153.285 464.793 161.648 459.702 173.103C459.702 173.103 459.612 173.103 459.43 173.103C459.43 173.103 459.339 173.103 459.157 173.103C459.157 173.103 458.975 173.83 458.612 175.285C458.43 176.739 458.066 178.648 457.521 181.012C456.975 183.194 456.43 185.466 455.884 187.83C455.339 190.194 454.793 192.466 454.248 194.648C453.702 196.83 453.339 198.466 453.157 199.557C452.793 201.012 452.157 203.739 451.248 207.739C451.066 208.648 450.884 209.194 450.702 209.376C450.702 209.376 450.521 209.376 450.157 209.376C449.43 209.376 448.248 209.012 446.612 208.285C445.157 207.739 443.521 206.921 441.702 205.83C439.884 204.739 437.884 203.557 435.702 202.285C433.702 201.012 431.884 199.83 430.248 198.739C428.793 197.83 427.521 197.012 426.43 196.285C425.339 195.376 424.702 194.921 424.521 194.921C424.521 194.739 424.612 194.285 424.793 193.557C424.975 192.648 425.248 191.466 425.612 190.012C425.975 188.557 426.248 187.103 426.43 185.648C426.793 183.648 427.157 181.557 427.521 179.376C428.066 177.194 428.521 175.285 428.884 173.648C429.248 172.012 429.521 170.557 429.702 169.285C429.884 167.83 430.066 166.739 430.248 166.012C430.43 165.285 430.521 164.921 430.521 164.921C435.975 140.012 442.339 120.376 449.612 106.012C452.157 100.921 453.793 97.921 454.521 97.0119C455.248 95.921 456.248 95.3756 457.521 95.3756C458.612 95.3756 462.157 97.1028 468.157 100.557C474.157 103.83 477.521 106.012 478.248 107.103C478.43 107.648 478.521 108.285 478.521 109.012C478.521 111.194 476.612 118.285 472.793 130.285C481.884 118.103 492.43 107.376 504.43 98.1028C504.612 97.921 505.521 97.1937 507.157 95.921C508.793 94.4665 510.066 93.4665 510.975 92.921C511.339 92.921 511.702 92.921 512.066 92.921C514.066 92.921 516.793 93.921 520.248 95.921C523.702 97.7392 526.702 99.5574 529.248 101.376C531.793 103.194 533.066 104.194 533.066 104.376C533.066 104.376 533.066 104.466 533.066 104.648C533.066 105.376 532.702 107.103 531.975 109.83C531.43 112.376 530.702 115.012 529.793 117.739C529.066 120.285 528.339 122.648 527.611 124.83C527.066 127.012 526.793 128.103 526.793 128.103C527.702 127.012 529.339 125.285 531.702 122.921C534.248 120.557 538.248 117.012 543.702 112.285C549.339 107.557 554.43 103.83 558.975 101.103C560.066 100.557 561.339 100.285 562.793 100.285C565.157 100.285 567.975 101.194 571.248 103.012C574.521 104.648 577.066 106.285 578.884 107.921C580.884 109.376 581.884 110.194 581.884 110.376Z" fill="#C9B3E0" fill-opacity="0.5"/>
<path d="M581.884 110.376C582.066 110.739 582.157 111.103 582.157 111.466C582.157 111.466 582.157 111.557 582.157 111.739C582.157 113.194 580.975 117.557 578.611 124.83C576.43 131.921 573.975 141.285 571.248 152.921C568.521 164.376 566.793 175.739 566.066 187.012C565.884 188.466 565.702 190.557 565.521 193.285C565.339 196.012 565.248 197.739 565.248 198.466C565.248 198.466 565.248 198.648 565.248 199.012C565.248 199.376 565.248 199.648 565.248 199.83C565.248 199.83 565.248 199.921 565.248 200.103C565.612 199.921 566.339 199.376 567.43 198.466C568.702 197.557 570.611 195.83 573.157 193.285C575.702 190.557 578.248 187.466 580.793 184.012C583.339 180.557 586.157 176.012 589.248 170.376C592.339 164.739 595.157 158.648 597.702 152.103C601.157 140.83 603.43 135.012 604.521 134.648C605.248 134.466 605.884 134.376 606.43 134.376C608.975 134.376 610.975 136.012 612.43 139.285C612.43 140.012 611.884 142.376 610.793 146.376C609.702 150.194 607.793 155.285 605.066 161.648C602.521 167.83 599.43 174.103 595.793 180.466C592.339 186.83 587.702 192.921 581.884 198.739C576.066 204.557 569.884 208.83 563.339 211.557C562.43 211.376 560.612 210.83 557.884 209.921C555.339 209.012 552.157 207.376 548.339 205.012C544.521 202.648 542.248 200.012 541.521 197.103C540.975 195.103 540.702 190.557 540.702 183.466C540.702 162.557 544.43 140.921 551.884 118.557C547.339 122.012 543.793 125.103 541.248 127.83C538.702 130.376 532.157 137.921 521.611 150.466C520.339 152.103 519.248 154.376 518.339 157.285C517.612 160.194 515.521 169.466 512.066 185.103C512.066 185.83 511.884 186.921 511.521 188.376C511.339 189.83 511.066 191.376 510.702 193.012C510.521 194.466 510.248 196.012 509.884 197.648C509.521 199.285 509.157 200.83 508.793 202.285C508.611 203.739 508.339 205.103 507.975 206.376C507.793 207.648 507.612 208.648 507.43 209.376C507.248 210.103 507.157 210.466 507.157 210.466C507.157 210.83 506.793 211.012 506.066 211.012C503.521 211.012 499.066 209.376 492.702 206.103C486.521 202.83 483.43 200.466 483.43 199.012C483.43 198.83 483.43 198.739 483.43 198.739C483.43 198.739 483.43 198.557 483.43 198.194C483.612 197.83 483.702 197.376 483.702 196.83C483.702 196.285 483.702 195.648 483.702 194.921C483.884 194.012 483.975 193.103 483.975 192.194C484.157 191.285 484.339 190.376 484.521 189.466C484.702 188.376 484.884 187.285 485.066 186.194C485.248 185.103 485.521 184.012 485.884 182.921C487.339 172.921 489.793 160.921 493.248 146.921C493.248 146.557 493.43 145.739 493.793 144.466C499.43 125.921 502.884 115.012 504.157 111.739C499.43 115.739 495.793 119.285 493.248 122.376C490.702 125.466 484.066 134.012 473.339 148.012C469.339 153.285 464.793 161.648 459.702 173.103C459.702 173.103 459.612 173.103 459.43 173.103C459.43 173.103 459.339 173.103 459.157 173.103C459.157 173.103 458.975 173.83 458.612 175.285C458.43 176.739 458.066 178.648 457.521 181.012C456.975 183.194 456.43 185.466 455.884 187.83C455.339 190.194 454.793 192.466 454.248 194.648C453.702 196.83 453.339 198.466 453.157 199.557C452.793 201.012 452.157 203.739 451.248 207.739C451.066 208.648 450.884 209.194 450.702 209.376C450.702 209.376 450.521 209.376 450.157 209.376C449.43 209.376 448.248 209.012 446.612 208.285C445.157 207.739 443.521 206.921 441.702 205.83C439.884 204.739 437.884 203.557 435.702 202.285C433.702 201.012 431.884 199.83 430.248 198.739C428.793 197.83 427.521 197.012 426.43 196.285C425.339 195.376 424.702 194.921 424.521 194.921C424.521 194.739 424.612 194.285 424.793 193.557C424.975 192.648 425.248 191.466 425.612 190.012C425.975 188.557 426.248 187.103 426.43 185.648C426.793 183.648 427.157 181.557 427.521 179.376C428.066 177.194 428.521 175.285 428.884 173.648C429.248 172.012 429.521 170.557 429.702 169.285C429.884 167.83 430.066 166.739 430.248 166.012C430.43 165.285 430.521 164.921 430.521 164.921C435.975 140.012 442.339 120.376 449.612 106.012C452.157 100.921 453.793 97.921 454.521 97.0119C455.248 95.921 456.248 95.3756 457.521 95.3756C458.612 95.3756 462.157 97.1028 468.157 100.557C474.157 103.83 477.521 106.012 478.248 107.103C478.43 107.648 478.521 108.285 478.521 109.012C478.521 111.194 476.612 118.285 472.793 130.285C481.884 118.103 492.43 107.376 504.43 98.1028C504.612 97.921 505.521 97.1937 507.157 95.921C508.793 94.4665 510.066 93.4665 510.975 92.921C511.339 92.921 511.702 92.921 512.066 92.921C514.066 92.921 516.793 93.921 520.248 95.921C523.702 97.7392 526.702 99.5574 529.248 101.376C531.793 103.194 533.066 104.194 533.066 104.376C533.066 104.376 533.066 104.466 533.066 104.648C533.066 105.376 532.702 107.103 531.975 109.83C531.43 112.376 530.702 115.012 529.793 117.739C529.066 120.285 528.339 122.648 527.611 124.83C527.066 127.012 526.793 128.103 526.793 128.103C527.702 127.012 529.339 125.285 531.702 122.921C534.248 120.557 538.248 117.012 543.702 112.285C549.339 107.557 554.43 103.83 558.975 101.103C560.066 100.557 561.339 100.285 562.793 100.285C565.157 100.285 567.975 101.194 571.248 103.012C574.521 104.648 577.066 106.285 578.884 107.921C580.884 109.376 581.884 110.194 581.884 110.376Z" stroke="white" stroke-width="20" mask="url(#path-4-outside-1_2_4)"/>
<path d="M389.692 115.786C384.191 120.42 378.13 127.382 371.542 136.941C363.144 149.376 357.704 160.363 354.992 169.94C356.632 168.2 358.635 166.044 361.012 163.451C369.041 154.692 374.009 149.095 376.065 146.525L376.078 146.51L376.09 146.495C378.027 144.111 381.265 139.758 385.85 133.361C385.193 132.161 384.788 130.774 384.788 129.194C384.788 127.713 385.301 126.267 385.691 125.291C386.15 124.145 386.788 122.83 387.559 121.386L387.618 121.275L387.683 121.167C389.017 118.943 389.561 117.292 389.695 116.144C389.695 116.023 389.694 115.904 389.692 115.786ZM464.062 148.012C464.062 148.945 463.798 149.716 463.741 149.89C463.631 150.228 463.497 150.562 463.373 150.854C463.121 151.448 462.778 152.167 462.374 152.975C461.559 154.606 460.363 156.853 458.809 159.689L458.792 159.719L458.774 159.749C455.623 165.311 451.026 172.848 445.01 182.327C438.95 191.876 432.785 200.711 426.515 208.829L426.516 208.83C424.44 211.598 421.805 213.779 418.689 215.374C416.069 216.964 413.18 218.193 410.243 218.194C409.016 218.194 407.891 217.88 406.916 217.393L406.759 217.315L406.608 217.226C402.682 214.905 399.471 213.175 396.946 211.997C394.497 210.854 392.796 210.049 391.9 209.61C390.761 209.162 389.812 208.489 389.035 207.771C388.074 207.045 386.903 205.926 385.707 204.73L385.531 204.553L385.373 204.36C383.588 202.178 382.111 199.961 381.288 197.768L381.256 197.681L381.227 197.593C380.664 195.906 379.906 192.429 378.956 187.458C378.927 187.488 378.898 187.518 378.869 187.547C377.679 188.738 376.382 190.119 374.979 191.697L374.882 191.807L374.778 191.911C373.425 193.265 372.307 194.382 371.426 195.263C371.148 195.61 370.935 195.878 370.783 196.068C370.693 196.181 370.625 196.266 370.579 196.322C370.556 196.351 370.54 196.373 370.528 196.387C370.523 196.394 370.517 196.399 370.515 196.403C370.513 196.404 370.512 196.406 370.512 196.406L370.511 196.407L370.233 196.755L369.899 197.047C369.318 197.555 368.934 197.928 368.699 198.179L368.504 198.766L367.611 199.622C362.325 204.689 355.906 207.284 348.606 207.284H346.206L345.064 206.643C337.781 202.546 332.151 199.319 328.192 196.972C326.217 195.8 324.624 194.828 323.437 194.065C322.446 193.428 321.253 192.639 320.525 191.911L320.441 191.827L320.361 191.738C318.348 189.524 316.698 187.257 315.674 184.951L315.545 184.661L315.454 184.358C314.787 182.134 313.92 177.293 312.847 170.318L312.848 170.317C312.616 168.902 312.516 167.365 312.516 165.739C312.516 159.419 314.288 152.039 317.488 143.755C320.72 135.391 324.985 127.249 330.265 119.329L330.271 119.319L330.279 119.307C335.906 110.963 342.903 103.964 351.244 98.3352C359.94 92.4064 369.086 89.2844 378.606 89.2844C380.344 89.2844 382.08 89.3611 383.815 89.5129L384.559 89.5822L384.903 89.6164L385.239 89.6985C390.61 91.0006 395.94 93.5265 401.227 97.133C401.901 96.1034 402.625 95.0278 403.396 93.9065L403.454 93.8215L403.516 93.7395C404.636 92.2457 405.614 91.0095 406.426 90.0901C406.827 89.6359 407.255 89.1804 407.689 88.7873C407.86 88.6329 408.264 88.2659 408.843 87.9143C409.117 87.7146 409.358 87.5668 409.512 87.4748C409.771 87.3193 410.051 87.1682 410.337 87.0188C411.023 86.572 411.693 86.3482 412.167 86.2297C412.88 86.0514 413.548 86.0119 414.062 86.0119L414.443 86.0197C416.358 86.0987 418.312 86.7544 420.068 87.5139C422.04 88.3665 424.272 89.5815 426.731 91.093C429.216 92.5661 431.221 93.8446 432.65 94.9035C433.351 95.4227 434.066 95.9995 434.654 96.6096C434.946 96.9121 435.327 97.3446 435.662 97.8908C435.906 98.2889 436.338 99.0859 436.473 100.166C436.554 100.659 436.622 101.08 436.67 101.418C436.701 101.635 436.788 102.221 436.788 102.739V103.012C436.788 105.178 436.218 107.952 435.385 111.009C434.518 114.186 433.244 118.095 431.584 122.705L431.579 122.718C424.628 141.87 419.371 160.366 415.792 178.209L416.798 177.203C418.816 175.186 420.317 173.433 421.37 171.941C422.695 169.865 424.448 167.285 426.612 164.219L426.668 164.142L426.726 164.066C428.948 161.159 431.202 157.784 433.483 153.923L433.5 153.895L433.518 153.866C436.019 149.757 438.711 145.093 441.593 139.869L441.799 139.495L442.065 139.161C443.668 137.158 445.974 135.921 448.697 135.921L449.024 135.927C452.322 136.045 455.321 137.926 457.777 139.98C459.069 140.909 460.205 141.805 461.117 142.659C461.937 143.428 463.091 144.623 463.703 146.155L464.062 147.049V148.012Z" fill="#C9B3E0" fill-opacity="0.5" stroke="white" stroke-width="10"/>
<path d="M287.418 94.2182C290.767 94.5531 293.879 95.0404 296.74 95.6908L297.951 95.9799L298.28 96.0619L298.596 96.1879C300.038 96.7647 301.205 97.2449 301.897 97.56C302.752 97.8769 303.616 98.329 304.433 98.8051C305.422 99.2352 306.391 99.7916 307.264 100.522C308.277 101.078 309.77 101.972 311.632 103.118C313.99 104.569 316.804 106.293 320.073 108.291L320.072 108.292C322.32 109.617 324.037 111.711 324.542 114.517C325.05 116.54 325.192 119.423 325.192 122.648V122.709L325.191 122.77C324.98 131.433 321.883 139.245 316.097 146.065C310.816 152.502 304.828 157.431 298.102 160.693C291.624 163.833 285.327 165.557 279.284 165.557C278.366 165.557 277.455 165.505 276.56 165.395C275.7 170.379 275.284 174.852 275.284 178.83C275.284 185.16 276.354 189.244 277.872 191.724C278.956 192.38 280.031 193.09 281.099 193.852L281.279 193.981L281.446 194.124C281.458 194.134 281.47 194.145 281.481 194.155C281.843 194.012 282.266 193.825 282.752 193.572C284.256 192.788 286.114 191.544 288.343 189.74C292.798 186.133 298.33 180.624 304.967 173.092C318.325 157.749 327.066 145.697 331.511 136.83C331.961 135.84 332.553 134.762 333.365 133.849C334.196 132.915 335.808 131.557 338.192 131.557C341.758 131.557 345.065 133.272 347.951 135.511C349.46 136.531 350.851 137.665 351.92 138.948C353.012 140.259 354.101 142.132 354.102 144.466C354.102 145.611 353.742 146.607 353.579 147.04C353.357 147.632 353.068 148.26 352.756 148.884C347.521 159.714 338.141 172.214 324.936 186.336C318.423 193.398 312.663 199.142 307.672 203.521C302.738 207.849 298.302 211.073 294.453 212.832L293.925 213.074L293.355 213.188C292.073 213.444 290.739 213.557 289.375 213.557C286.158 213.557 282.858 212.703 279.553 211.268C276.655 210.106 273.993 208.827 271.583 207.421L271.499 207.373L271.418 207.321C269.385 206.027 266.465 204.11 262.674 201.583C256.983 197.976 252.514 194.088 249.77 189.801C243.692 181.239 240.738 171.141 240.738 159.74C240.738 144.276 245.552 129.751 254.986 116.263L255.857 115.023C264.888 102.365 275.115 94.6361 286.731 94.1977L287.075 94.184L287.418 94.2182ZM301.054 123.686C298.022 125.453 295.565 127.586 293.616 130.053C291.059 133.471 287.87 138.713 284.039 145.878C286.665 144.963 289.47 143.528 292.456 141.495C294.95 139.64 297.164 136.698 298.902 132.275C299.885 129.773 300.611 126.918 301.054 123.686Z" fill="#C9B3E0" fill-opacity="0.5" stroke="white" stroke-width="10"/>
<path d="M199.566 63.1028C200.741 63.1029 201.864 63.4155 202.656 63.6751C203.55 63.9678 204.536 64.3703 205.581 64.8431C207.677 65.791 210.317 67.1641 213.459 68.9202H213.458C219.337 72.0831 221.201 78.6278 221.201 85.5569C221.201 92.2298 219.464 100.151 216.222 109.209C216.457 109.127 216.693 109.043 216.928 108.956C218.733 108.291 220.341 107.759 221.72 107.388C223.012 107.04 224.435 106.74 225.747 106.74H226.025L226.299 106.77C227.941 106.952 229.773 107.648 231.46 108.398C233.266 109.2 235.427 110.308 237.914 111.688C240.527 112.999 242.75 114.274 244.483 115.52C246.017 116.622 247.801 118.14 248.763 120.14H248.765C248.788 120.187 248.81 120.236 248.832 120.284C248.842 120.304 248.852 120.324 248.861 120.345H248.86C249.519 121.795 249.566 123.375 249.566 124.284C249.566 127.596 248.271 131.284 246.41 135.043C236.661 159.528 230.991 178.597 229.16 192.42C229.647 191.786 230.301 190.89 231.142 189.677C232.723 187.214 233.914 185.253 234.74 183.766L234.838 183.588L234.95 183.42C235.957 181.91 237.345 179.66 239.131 176.624C240.905 173.43 242.589 170.238 244.184 167.048L244.207 167.002L244.232 166.956C246.025 163.549 248.094 159.5 250.441 154.807C252.812 149.881 255.455 144.507 258.366 138.685L258.505 138.407L258.678 138.148C260.302 135.712 262.872 135.103 264.747 135.103C267.872 135.103 271.05 136.207 274.121 137.836C275.683 138.62 277.132 139.461 278.264 140.381C278.837 140.847 279.49 141.461 280.033 142.242C280.572 143.016 281.201 144.247 281.201 145.83V146.803L281.009 147.477C280.685 148.611 279.93 150.262 279.06 152.045C278.116 153.98 276.813 156.513 275.166 159.624C271.831 165.924 266.868 174.559 260.308 185.493L260.298 185.509L260.288 185.526C253.652 196.402 247.142 205.622 240.753 213.141C236.98 217.621 232.079 220.103 226.293 220.103C224.851 220.103 223.43 219.916 222.04 219.557H221.929C220.692 219.557 219.493 219.143 218.884 218.925C218.099 218.645 217.191 218.263 216.19 217.811C213.474 216.78 210.58 214.864 207.594 212.438L207.532 212.388L207.473 212.336C204.204 209.503 201.717 206.148 200.124 202.28L200.032 202.056L199.962 201.826C197.977 195.276 197.02 188.049 197.02 180.194C197.02 165.483 200.539 148.571 207.353 129.544C207.137 129.504 206.918 129.465 206.697 129.422C201.972 138.948 197.246 148.116 192.516 156.923L191.101 159.557H188.11C186.99 159.557 185.968 159.175 185.706 159.082C185.188 158.899 184.601 158.656 183.983 158.384C182.735 157.835 181.082 157.042 179.057 156.03L178.977 155.99L178.899 155.947C176.872 154.841 175.254 153.914 174.108 153.185C173.554 152.832 172.982 152.445 172.501 152.052C172.274 151.866 171.916 151.557 171.569 151.148C171.395 150.941 171.129 150.599 170.887 150.138C170.663 149.711 170.293 148.866 170.293 147.74V146.354L171.005 145.166L171.006 145.165C171.006 145.164 171.007 145.163 171.008 145.161C171.01 145.158 171.014 145.153 171.018 145.146C171.026 145.132 171.04 145.11 171.057 145.081C171.091 145.025 171.142 144.939 171.21 144.826C171.346 144.598 171.551 144.257 171.823 143.803L172.237 143.103C172.678 142.347 173.224 141.383 173.88 140.202C174.803 138.361 175.811 136.439 176.903 134.436L176.938 134.372L176.974 134.311C178.152 132.291 179.447 129.793 180.859 126.792C181.587 125.247 182.314 123.701 183.041 122.156C183.114 122 183.187 121.845 183.26 121.69C181.65 120.774 180.289 120.011 179.171 119.402L178.927 119.268L178.698 119.108C176.802 117.78 174.648 116.189 172.244 114.339L172.151 114.268L172.063 114.193C169.386 111.928 167.193 109.468 165.722 106.77L165.634 106.61L165.559 106.445C164.332 103.747 163.747 100.853 163.747 97.8304C163.747 92.4779 165.922 87.0547 169.496 81.6927L169.525 81.6497C172.656 77.058 176.853 73.0042 181.992 69.4466L182.028 69.4212L182.065 69.3968C187.324 65.8907 192.489 63.5983 197.455 63.1253L197.691 63.1028H199.566ZM200.175 83.4173C197.288 86.0715 194.096 89.8623 190.613 94.9085C188.519 98.0606 187.656 100.919 187.656 103.557C187.656 105.735 188.213 107.399 189.201 108.766C190.175 106.467 191.461 103.438 193.056 99.6907C196.01 92.7487 198.386 87.3143 200.175 83.4173Z" fill="#C9B3E0" fill-opacity="0.5" stroke="white" stroke-width="10"/>
<path d="M99.3418 5.03928C106.409 5.78322 112.29 7.13689 116.337 9.51193C118.562 10.8097 120.953 12.28 123.509 13.9211C126.044 15.3708 128.841 16.9949 131.898 18.7932C134.626 20.3977 136.849 21.7546 138.537 22.8518L139.229 23.3059L139.344 23.383L139.454 23.466C142.421 25.6915 144.909 27.8481 146.818 29.9348C149.001 31.9463 151.459 34.9626 154.159 38.7424C157.285 42.9395 159.835 48.3485 161.919 54.7746C164.196 61.2407 166.157 68.8379 167.82 77.5266H167.819C168.624 81.5708 169 86.2678 169 91.5578C169 97.1167 168.521 102.922 167.576 108.966L167.572 108.989C166.609 114.959 164.807 121.848 162.22 129.618C159.71 137.713 155.706 146.154 150.295 154.934C144.992 163.835 138.392 172.404 130.525 180.646L130.485 180.688L130.444 180.73C126.936 184.238 123.838 187.151 121.163 189.445C118.293 191.905 114.004 194.804 108.481 198.117C102.716 201.577 96.6566 204.367 90.3086 206.483C84.2929 208.488 77.8441 209.466 71 209.466C60.7051 209.466 51.2663 206.98 42.8066 201.945L42.6963 201.879L42.5898 201.809C38.8715 199.33 35.5645 197.332 32.6602 195.794L32.502 195.71L32.3496 195.615C30.9304 194.728 29.8373 194.079 29.0449 193.643C28.6478 193.424 28.3686 193.284 28.1895 193.2C28.1708 193.192 28.1542 193.184 28.1396 193.178L27.8008 193.093L27.3096 192.848C26.3199 192.353 25.2176 191.681 24.0449 190.9L23.8643 190.78L23.6943 190.644C22.8264 189.949 22.2305 189.508 21.8633 189.263L21.4512 188.988L21.1006 188.638C20.8428 188.38 19.7749 187.391 17.7275 185.53V185.529C15.8761 183.862 14.374 182.419 13.3008 181.238C12.7711 180.656 12.243 180.026 11.8174 179.388C11.604 179.068 11.3507 178.648 11.1367 178.156C10.9688 177.77 10.712 177.087 10.6504 176.215L10.6367 175.83L10.6475 175.467C10.761 173.685 11.6927 172.431 12.374 171.749L13.208 170.914L14.3281 170.541C15.3556 170.199 16.4346 170.012 17.5459 170.012L18.0664 170.025C20.6842 170.155 23.4975 171.239 26.1904 172.585C29.2198 174.1 32.759 176.295 36.7695 179.093H36.7686C37.8079 179.794 38.844 180.633 39.874 181.584C43.2677 182.232 46.7322 182.558 50.2725 182.558C50.9092 182.558 51.3618 182.537 51.6611 182.51C51.7517 182.502 51.8158 182.491 51.8574 182.486L52.0381 182.426L52.3975 182.362C52.3998 182.361 52.402 182.36 52.4043 182.36C49.3101 181.663 46.4538 180.57 43.8818 179.027C39.6326 176.477 35.5853 172.78 31.7041 168.122L30.0791 166.171L30.6943 163.708C30.8909 162.922 31.2686 161.509 31.8125 159.515C32.3776 157.443 32.9495 155.534 33.5293 153.794L33.5762 153.655L33.6299 153.519C33.9935 152.61 34.2664 151.927 34.4482 151.473C34.5049 151.331 34.5528 151.212 34.5918 151.114C35.5569 147.123 37.3722 140.511 40.0137 131.354L40.0264 131.311L40.0391 131.269C42.9409 121.838 46.8447 108.856 51.752 92.3166L51.7588 92.2932L51.7666 92.2688C56.8689 75.6862 61.6122 60.9974 65.9971 48.2082L66.0078 48.1779L66.0186 48.1487C67.5877 43.7549 69.0254 39.9594 70.3252 36.7785C67.1239 39.2417 63.7829 42.399 60.3115 46.301C56.2284 51.0968 52.904 55.3917 50.3125 59.1926L50.2822 59.2375L50.25 59.2815C47.7089 62.8391 44.9234 67.5228 41.8994 73.3928L41.8848 73.4211L41.8701 73.4485C38.7974 79.2323 36.709 83.5126 35.5322 86.3703L35.5117 86.4211L35.4902 86.4709C34.2908 89.2126 32.7002 92.7287 30.7275 97.0129V101.194H25.7275C24.7904 101.194 23.945 100.982 23.3955 100.821C22.7756 100.638 22.1294 100.395 21.4863 100.127C20.1979 99.5903 18.6399 98.831 16.8535 97.8908L16.7109 97.8166L16.5742 97.7326C14.8879 96.7021 13.4721 95.7682 12.4307 94.9582C11.925 94.565 11.3544 94.084 10.8633 93.5383C10.6176 93.2653 10.2848 92.8601 9.99121 92.3381C9.77848 91.9599 9.45113 91.2826 9.3252 90.386C9.10159 89.1781 9.00002 87.9269 9 86.6487C9 76.835 13.6266 65.4754 21.8018 52.841C30.0717 39.8787 39.4154 29.7085 49.9014 22.5237L49.9102 22.5168L49.9199 22.511C55.0009 19.0632 58.8866 16.6145 61.4004 15.3576C63.8071 14.1543 69.2022 11.891 77.3252 8.64182L77.3389 8.63693L77.3535 8.63107C83.1817 6.34142 90.3641 5.20249 98.7041 5.01291L99.0244 5.00607L99.3418 5.03928ZM101.818 25.6487C98.715 25.6487 95.6687 25.9739 92.6738 26.6252C93.4819 27.0909 94.3193 27.5913 95.1826 28.1272C97.847 29.7809 99.9451 31.1512 101.41 32.2121C102.126 32.7303 102.814 33.2631 103.367 33.7785C103.634 34.0269 104.004 34.3936 104.344 34.8508C104.476 35.029 105.026 35.7505 105.299 36.8469C105.636 37.7168 105.728 38.5555 105.728 39.1936C105.728 40.5149 105.475 42.2296 105.13 44.0695C104.767 46.0065 104.234 48.4175 103.542 51.2785C102.158 56.9998 100.094 64.6959 97.3643 74.342L97.3652 74.343C92.0891 93.4461 87.2582 109.942 82.876 123.822L82.877 123.823C78.698 137.632 75.9595 146.578 74.6738 150.618L74.6709 150.629L74.667 150.639C71.8466 159.373 69.6118 166.191 67.9658 171.083C67.0474 173.813 66.2792 176.041 65.6816 177.688C70.2519 175.467 75.363 172.486 81.0303 168.68L81.0449 168.67L81.0586 168.66C92.8456 160.86 102.921 150.887 111.292 138.694C119.148 126.546 124.232 116.369 126.765 108.094L126.773 108.064L126.783 108.033C129.508 99.5176 131.465 87.6561 132.546 72.2756V68.9211C132.546 61.7349 132.019 56.3339 131.092 52.5471C127.427 41.1029 123.221 33.1911 118.729 28.3049C112.871 26.5183 107.24 25.6487 101.818 25.6487Z" fill="#C9B3E0" fill-opacity="0.5" stroke="white" stroke-width="10"/>
</g>
<defs>
<filter id="filter0_d_2_4" x="0" y="0" width="935.026" height="239.255" filterUnits="userSpaceOnUse" color-interpolation-filters="sRGB">
<feFlood flood-opacity="0" result="BackgroundImageFix"/>
<feColorMatrix in="SourceAlpha" type="matrix" values="0 0 0 0 0 0 0 0 0 0 0 0 0 0 0 0 0 0 127 0" result="hardAlpha"/>
<feOffset dy="4"/>
<feGaussianBlur stdDeviation="2"/>
<feComposite in2="hardAlpha" operator="out"/>
<feColorMatrix type="matrix" values="0 0 0 0 0 0 0 0 0 0 0 0 0 0 0 0 0 0 0.25 0"/>
<feBlend mode="normal" in2="BackgroundImageFix" result="effect1_dropShadow_2_4"/>
<feBlend mode="normal" in="SourceGraphic" in2="effect1_dropShadow_2_4" result="shape"/>
</filter>
</defs>
</svg>
